<mxfile host="app.diagrams.net" modified="2024-05-19T21:03:04.515Z" agent="Mozilla/5.0 (Windows NT 10.0; Win64; x64; rv:126.0) Gecko/20100101 Firefox/126.0" etag="ALXklRGiC7WUmoUuUdme" version="24.4.4" type="device">
  <diagram name="Page-1" id="ZhvcE-7q1zbYYzGUlo_b">
    <mxGraphModel dx="1361" dy="525" grid="1" gridSize="10" guides="1" tooltips="1" connect="1" arrows="1" fold="1" page="1" pageScale="1" pageWidth="850" pageHeight="1100" math="0" shadow="0">
      <root>
        <mxCell id="0" />
        <mxCell id="1" parent="0" />
        <mxCell id="DwBY4QsNLjTno8ynwIr1-3" value="orders" style="rounded=1;arcSize=10;whiteSpace=wrap;html=1;align=center;" vertex="1" parent="1">
          <mxGeometry x="230" y="756.72" width="100" height="40" as="geometry" />
        </mxCell>
        <mxCell id="DwBY4QsNLjTno8ynwIr1-4" value="fill" style="ellipse;whiteSpace=wrap;html=1;align=center;" vertex="1" parent="1">
          <mxGeometry x="290" y="890" width="100" height="40" as="geometry" />
        </mxCell>
        <mxCell id="DwBY4QsNLjTno8ynwIr1-5" value="" style="endArrow=none;html=1;rounded=0;entryX=0.5;entryY=0;entryDx=0;entryDy=0;exitX=0.75;exitY=1;exitDx=0;exitDy=0;" edge="1" parent="1" source="DwBY4QsNLjTno8ynwIr1-3" target="DwBY4QsNLjTno8ynwIr1-4">
          <mxGeometry relative="1" as="geometry">
            <mxPoint x="280" y="816.72" as="sourcePoint" />
            <mxPoint x="490" y="726.72" as="targetPoint" />
          </mxGeometry>
        </mxCell>
        <mxCell id="DwBY4QsNLjTno8ynwIr1-6" value="" style="endArrow=none;html=1;rounded=0;exitX=1;exitY=0.5;exitDx=0;exitDy=0;entryX=0;entryY=0.5;entryDx=0;entryDy=0;" edge="1" parent="1" source="DwBY4QsNLjTno8ynwIr1-3" target="DwBY4QsNLjTno8ynwIr1-29">
          <mxGeometry relative="1" as="geometry">
            <mxPoint x="160" y="776.72" as="sourcePoint" />
            <mxPoint x="410" y="830" as="targetPoint" />
          </mxGeometry>
        </mxCell>
        <mxCell id="DwBY4QsNLjTno8ynwIr1-8" value="" style="endArrow=none;html=1;rounded=0;entryX=0;entryY=0.5;entryDx=0;entryDy=0;exitX=1;exitY=1;exitDx=0;exitDy=0;" edge="1" parent="1" source="DwBY4QsNLjTno8ynwIr1-3" target="DwBY4QsNLjTno8ynwIr1-12">
          <mxGeometry relative="1" as="geometry">
            <mxPoint x="130" y="616.72" as="sourcePoint" />
            <mxPoint x="414.64466094067257" y="875.8578643762689" as="targetPoint" />
          </mxGeometry>
        </mxCell>
        <mxCell id="DwBY4QsNLjTno8ynwIr1-10" value="order_id" style="ellipse;whiteSpace=wrap;html=1;align=center;fontStyle=4;" vertex="1" parent="1">
          <mxGeometry x="60" y="810" width="100" height="40" as="geometry" />
        </mxCell>
        <mxCell id="DwBY4QsNLjTno8ynwIr1-11" value="" style="endArrow=none;html=1;rounded=0;entryX=1;entryY=0.5;entryDx=0;entryDy=0;exitX=0;exitY=0.5;exitDx=0;exitDy=0;" edge="1" parent="1" source="DwBY4QsNLjTno8ynwIr1-3" target="DwBY4QsNLjTno8ynwIr1-10">
          <mxGeometry relative="1" as="geometry">
            <mxPoint x="290" y="620" as="sourcePoint" />
            <mxPoint x="450" y="620" as="targetPoint" />
          </mxGeometry>
        </mxCell>
        <mxCell id="DwBY4QsNLjTno8ynwIr1-12" value="&lt;div&gt;type(sale/purc&lt;/div&gt;&lt;div&gt;hase)&lt;/div&gt;" style="ellipse;shape=doubleEllipse;margin=3;whiteSpace=wrap;html=1;align=center;" vertex="1" parent="1">
          <mxGeometry x="400" y="860" width="100" height="40" as="geometry" />
        </mxCell>
        <mxCell id="DwBY4QsNLjTno8ynwIr1-13" value="" style="endArrow=none;html=1;rounded=0;exitX=1;exitY=0.5;exitDx=0;exitDy=0;entryX=0;entryY=1;entryDx=0;entryDy=0;" edge="1" parent="1" target="DwBY4QsNLjTno8ynwIr1-3" source="DwBY4QsNLjTno8ynwIr1-14">
          <mxGeometry relative="1" as="geometry">
            <mxPoint x="155.35533905932743" y="842.5778643762692" as="sourcePoint" />
            <mxPoint x="450" y="610" as="targetPoint" />
          </mxGeometry>
        </mxCell>
        <mxCell id="DwBY4QsNLjTno8ynwIr1-14" value="&lt;div&gt;&lt;span style=&quot;border-bottom: 1px dotted&quot;&gt;client_id&lt;/span&gt;&lt;/div&gt;&lt;div&gt;&lt;span style=&quot;border-bottom: 1px dotted&quot;&gt;&lt;/span&gt;&lt;/div&gt;" style="ellipse;whiteSpace=wrap;html=1;align=center;" vertex="1" parent="1">
          <mxGeometry x="60" y="870" width="100" height="40" as="geometry" />
        </mxCell>
        <mxCell id="DwBY4QsNLjTno8ynwIr1-15" value="&lt;span style=&quot;border-bottom: 1px dotted&quot;&gt;book_id&lt;br&gt;&lt;/span&gt;" style="ellipse;whiteSpace=wrap;html=1;align=center;" vertex="1" parent="1">
          <mxGeometry x="180" y="890" width="100" height="40" as="geometry" />
        </mxCell>
        <mxCell id="DwBY4QsNLjTno8ynwIr1-16" value="" style="endArrow=none;html=1;rounded=0;exitX=0.5;exitY=0;exitDx=0;exitDy=0;entryX=0.25;entryY=1;entryDx=0;entryDy=0;" edge="1" parent="1" source="DwBY4QsNLjTno8ynwIr1-15" target="DwBY4QsNLjTno8ynwIr1-3">
          <mxGeometry relative="1" as="geometry">
            <mxPoint x="310" y="650" as="sourcePoint" />
            <mxPoint x="470" y="650" as="targetPoint" />
          </mxGeometry>
        </mxCell>
        <mxCell id="DwBY4QsNLjTno8ynwIr1-19" value="state(new/end)" style="ellipse;shape=doubleEllipse;margin=3;whiteSpace=wrap;html=1;align=center;" vertex="1" parent="1">
          <mxGeometry x="60" y="750" width="100" height="40" as="geometry" />
        </mxCell>
        <mxCell id="DwBY4QsNLjTno8ynwIr1-20" value="price" style="ellipse;whiteSpace=wrap;html=1;align=center;dashed=1;" vertex="1" parent="1">
          <mxGeometry x="400" y="756.72" width="100" height="40" as="geometry" />
        </mxCell>
        <mxCell id="DwBY4QsNLjTno8ynwIr1-21" value="" style="endArrow=none;html=1;rounded=0;exitX=1;exitY=0.5;exitDx=0;exitDy=0;entryX=0;entryY=0.5;entryDx=0;entryDy=0;" edge="1" parent="1" source="DwBY4QsNLjTno8ynwIr1-3" target="DwBY4QsNLjTno8ynwIr1-20">
          <mxGeometry relative="1" as="geometry">
            <mxPoint x="190" y="660" as="sourcePoint" />
            <mxPoint x="350" y="660" as="targetPoint" />
          </mxGeometry>
        </mxCell>
        <mxCell id="DwBY4QsNLjTno8ynwIr1-22" value="&lt;span style=&quot;border-bottom: 1px dotted&quot;&gt;market_id&lt;br&gt;&lt;/span&gt;" style="ellipse;whiteSpace=wrap;html=1;align=center;" vertex="1" parent="1">
          <mxGeometry x="400" y="700" width="100" height="40" as="geometry" />
        </mxCell>
        <mxCell id="DwBY4QsNLjTno8ynwIr1-23" value="" style="endArrow=none;html=1;rounded=0;exitX=1;exitY=0;exitDx=0;exitDy=0;entryX=0;entryY=0.5;entryDx=0;entryDy=0;" edge="1" parent="1" source="DwBY4QsNLjTno8ynwIr1-3" target="DwBY4QsNLjTno8ynwIr1-22">
          <mxGeometry relative="1" as="geometry">
            <mxPoint x="190" y="660" as="sourcePoint" />
            <mxPoint x="350" y="660" as="targetPoint" />
          </mxGeometry>
        </mxCell>
        <mxCell id="DwBY4QsNLjTno8ynwIr1-24" value="" style="endArrow=none;html=1;rounded=0;exitX=0;exitY=0.5;exitDx=0;exitDy=0;entryX=1;entryY=0.5;entryDx=0;entryDy=0;" edge="1" parent="1" source="DwBY4QsNLjTno8ynwIr1-3" target="DwBY4QsNLjTno8ynwIr1-19">
          <mxGeometry relative="1" as="geometry">
            <mxPoint x="190" y="660" as="sourcePoint" />
            <mxPoint x="350" y="660" as="targetPoint" />
          </mxGeometry>
        </mxCell>
        <mxCell id="DwBY4QsNLjTno8ynwIr1-25" value="&lt;div&gt;date&lt;/div&gt;" style="ellipse;whiteSpace=wrap;html=1;align=center;" vertex="1" parent="1">
          <mxGeometry x="400" y="640" width="100" height="40" as="geometry" />
        </mxCell>
        <mxCell id="DwBY4QsNLjTno8ynwIr1-26" value="" style="endArrow=none;html=1;rounded=0;entryX=0;entryY=0.5;entryDx=0;entryDy=0;exitX=1;exitY=0;exitDx=0;exitDy=0;" edge="1" parent="1" source="DwBY4QsNLjTno8ynwIr1-3" target="DwBY4QsNLjTno8ynwIr1-25">
          <mxGeometry relative="1" as="geometry">
            <mxPoint x="190" y="660" as="sourcePoint" />
            <mxPoint x="350" y="660" as="targetPoint" />
          </mxGeometry>
        </mxCell>
        <mxCell id="DwBY4QsNLjTno8ynwIr1-27" value="crypto" style="ellipse;whiteSpace=wrap;html=1;align=center;" vertex="1" parent="1">
          <mxGeometry x="60" y="690" width="100" height="40" as="geometry" />
        </mxCell>
        <mxCell id="DwBY4QsNLjTno8ynwIr1-28" value="" style="endArrow=none;html=1;rounded=0;exitX=1;exitY=0.5;exitDx=0;exitDy=0;entryX=0;entryY=0;entryDx=0;entryDy=0;" edge="1" parent="1" source="DwBY4QsNLjTno8ynwIr1-27" target="DwBY4QsNLjTno8ynwIr1-3">
          <mxGeometry relative="1" as="geometry">
            <mxPoint x="190" y="710" as="sourcePoint" />
            <mxPoint x="350" y="710" as="targetPoint" />
          </mxGeometry>
        </mxCell>
        <mxCell id="DwBY4QsNLjTno8ynwIr1-29" value="fee" style="ellipse;whiteSpace=wrap;html=1;align=center;dashed=1;" vertex="1" parent="1">
          <mxGeometry x="400" y="810" width="100" height="40" as="geometry" />
        </mxCell>
        <mxCell id="DwBY4QsNLjTno8ynwIr1-30" value="make an" style="shape=rhombus;perimeter=rhombusPerimeter;whiteSpace=wrap;html=1;align=center;" vertex="1" parent="1">
          <mxGeometry x="10" y="550" width="120" height="60" as="geometry" />
        </mxCell>
        <mxCell id="DwBY4QsNLjTno8ynwIr1-31" value="user" style="rounded=1;arcSize=10;whiteSpace=wrap;html=1;align=center;" vertex="1" parent="1">
          <mxGeometry x="-200" y="560" width="100" height="40" as="geometry" />
        </mxCell>
        <mxCell id="DwBY4QsNLjTno8ynwIr1-32" value="" style="endArrow=none;html=1;rounded=0;exitX=1;exitY=0.5;exitDx=0;exitDy=0;entryX=0;entryY=0.5;entryDx=0;entryDy=0;" edge="1" parent="1" source="DwBY4QsNLjTno8ynwIr1-31" target="DwBY4QsNLjTno8ynwIr1-30">
          <mxGeometry relative="1" as="geometry">
            <mxPoint x="380" y="600" as="sourcePoint" />
            <mxPoint x="540" y="600" as="targetPoint" />
          </mxGeometry>
        </mxCell>
        <mxCell id="DwBY4QsNLjTno8ynwIr1-33" value="" style="endArrow=none;html=1;rounded=0;exitX=1;exitY=0.5;exitDx=0;exitDy=0;entryX=0.25;entryY=0;entryDx=0;entryDy=0;" edge="1" parent="1" source="DwBY4QsNLjTno8ynwIr1-30" target="DwBY4QsNLjTno8ynwIr1-3">
          <mxGeometry relative="1" as="geometry">
            <mxPoint x="20" y="710" as="sourcePoint" />
            <mxPoint x="180" y="710" as="targetPoint" />
            <Array as="points">
              <mxPoint x="255" y="580" />
            </Array>
          </mxGeometry>
        </mxCell>
        <mxCell id="DwBY4QsNLjTno8ynwIr1-34" value="base on" style="shape=rhombus;perimeter=rhombusPerimeter;whiteSpace=wrap;html=1;align=center;" vertex="1" parent="1">
          <mxGeometry x="10" y="410" width="120" height="60" as="geometry" />
        </mxCell>
        <mxCell id="DwBY4QsNLjTno8ynwIr1-35" value="market" style="rounded=1;arcSize=10;whiteSpace=wrap;html=1;align=center;" vertex="1" parent="1">
          <mxGeometry x="-200" y="420" width="100" height="40" as="geometry" />
        </mxCell>
        <mxCell id="DwBY4QsNLjTno8ynwIr1-36" value="" style="endArrow=none;html=1;rounded=0;exitX=1;exitY=0.5;exitDx=0;exitDy=0;entryX=0;entryY=0.5;entryDx=0;entryDy=0;" edge="1" parent="1" source="DwBY4QsNLjTno8ynwIr1-35" target="DwBY4QsNLjTno8ynwIr1-34">
          <mxGeometry relative="1" as="geometry">
            <mxPoint x="380" y="460" as="sourcePoint" />
            <mxPoint x="540" y="460" as="targetPoint" />
          </mxGeometry>
        </mxCell>
        <mxCell id="DwBY4QsNLjTno8ynwIr1-37" value="" style="endArrow=none;html=1;rounded=0;exitX=1;exitY=0.5;exitDx=0;exitDy=0;entryX=0.5;entryY=0;entryDx=0;entryDy=0;" edge="1" parent="1" source="DwBY4QsNLjTno8ynwIr1-34" target="DwBY4QsNLjTno8ynwIr1-3">
          <mxGeometry relative="1" as="geometry">
            <mxPoint x="30" y="620" as="sourcePoint" />
            <mxPoint x="190" y="620" as="targetPoint" />
            <Array as="points">
              <mxPoint x="280" y="440" />
            </Array>
          </mxGeometry>
        </mxCell>
      </root>
    </mxGraphModel>
  </diagram>
</mxfile>
